<svg xmlns="http://www.w3.org/2000/svg" viewBox="0 0 180 50" fill="none">
  <!-- Adani Emblem -->
  <g transform="translate(10, 8)">
    <path d="M0 8 C0 3.5 3.5 0 8 0 H12 C16.5 0 20 3.5 20 8 V26 C20 30.5 16.5 34 12 34 H8 C3.5 34 0 30.5 0 26 Z" fill="#0077C8"/>
    <path d="M12 4 C12 1.8 13.8 0 16 0 H20 C22.2 0 24 1.8 24 4 V30 C24 32.2 22.2 34 20 34 H16 C13.8 34 12 32.2 12 30 Z" fill="#50B848" opacity="0.9"/>
    <path d="M20 10 C20 7.8 21.8 6 24 6 H26 C28.2 6 30 7.8 30 10 V24 C30 26.2 28.2 28 26 28 H24 C21.8 28 20 26.2 20 24 Z" fill="#6E2585" opacity="0.85"/>
  </g>
  
  <!-- Text Label -->
  <text x="52" y="33" fill="#FFFFFF" font-family="'Inter', 'Segoe UI', sans-serif" font-weight="700" font-size="24" letter-spacing="-0.5">adani</text>
</svg>
